<svg
  xmlns="http://www.w3.org/2000/svg"
viewBox="0 0 1829 647"
  fill="none"
  aria-hidden="true"
>
    <g transform="matrix(1,0,0,1,-6311.404172,-7235.52602)">
        <g transform="matrix(1,0,0,1,0,-0.629921)">
            <g transform="matrix(0.911598,0,0,0.911598,6311.062241,6510.686468)">
                <g transform="matrix(1,0,0,1,-44.12297,-38.778835)">
                    <g transform="matrix(9.44575,0,0,9.44575,-10448.72606,-7214.329906)">
                        <path d="M1126.595,905.856C1126.93,906.335 1127.323,906.777 1127.772,907.183C1129.546,908.786 1131.955,909.588 1134.998,909.588C1136.349,909.588 1137.713,909.409 1139.088,909.051C1140.463,908.693 1141.867,908.156 1143.299,907.439L1142.42,915.447C1140.728,915.87 1139.092,916.192 1137.513,916.412C1135.934,916.631 1134.396,916.741 1132.899,916.741C1127.446,916.741 1123.194,915.301 1120.143,912.42C1117.091,909.539 1115.565,905.543 1115.565,900.433C1115.565,897.796 1116.041,895.249 1116.993,892.791C1117.945,890.333 1119.268,888.234 1120.96,886.492C1122.995,884.392 1125.31,882.858 1127.906,881.89C1130.502,880.922 1133.582,880.437 1137.147,880.437C1139.002,880.437 1140.907,880.608 1142.86,880.95C1144.813,881.292 1146.847,881.805 1148.963,882.488L1146.668,889.544C1145.448,888.779 1144.158,888.209 1142.799,887.835C1141.44,887.461 1139.979,887.273 1138.416,887.273C1134.233,887.273 1130.97,888.457 1128.626,890.826C1126.283,893.194 1125.111,896.477 1125.111,900.677C1125.111,902.484 1125.498,904.044 1126.273,905.357L1117.173,906.088L1126.595,905.856Z" style="fill:rgb(49,49,49);fill-rule:nonzero;"/>
                    </g>
                    <g>
                        <g transform="matrix(1,0,0,1,0,704.321748)">
                            <path d="M713.224,269.002C706.396,259.692 702.702,248.196 702.702,234.307C702.702,215.343 709.133,200.026 721.354,188.1C733.367,176.376 748.911,170.099 768.298,170.099C789.229,170.099 804.956,176.853 816.094,188.748C819.751,192.653 822.885,197.112 825.427,202.147L826.819,191.93C827.866,184.245 833.236,177.847 840.622,175.483C847.39,173.317 853.956,171.72 860.318,170.671C866.877,169.59 873.263,169.058 879.473,169.058C898.292,169.058 913.002,174.379 924.014,183.747C928.027,187.161 931.413,190.965 934.157,195.165C936.033,192.689 938.116,190.334 940.406,188.1C952.42,176.376 967.963,170.099 987.35,170.099C1008.281,170.099 1024.008,176.853 1035.146,188.748C1038.666,192.507 1041.702,196.779 1044.191,201.584L1045.745,191.428C1046.955,183.518 1052.739,177.077 1060.474,175.025C1067.017,173.289 1073.577,172.005 1080.154,171.171C1086.691,170.341 1093.278,169.926 1099.914,169.926C1118.439,169.926 1132.784,174.579 1143.336,182.513C1156.138,192.139 1162.733,205.261 1162.733,222.07C1162.733,236.093 1157.721,247.715 1147.909,257.028C1151.062,263.165 1152.752,270.204 1152.752,278.222C1152.752,298.034 1145.073,313.31 1130.302,324.332C1117.826,333.641 1100.485,339.045 1077.87,339.045C1070.138,339.045 1062.247,338.238 1054.201,336.601C1046.454,335.025 1038.519,332.674 1030.403,329.521C1025.766,327.721 1022.147,324.369 1019.95,320.264C1015.366,324.457 1010.517,327.823 1005.453,330.414C995.568,335.472 983.073,338.35 967.823,338.35C959.144,338.35 951.115,337.435 943.727,335.678C936.479,333.954 929.691,331.387 923.357,327.998C919.655,333.016 913.714,336.181 907.158,336.181L819.937,336.181C813.912,336.181 808.204,333.48 804.382,328.822C802.426,326.438 801.07,323.669 800.369,320.742C795.941,324.715 791.27,327.923 786.401,330.414C776.516,335.472 764.02,338.35 748.771,338.35C740.092,338.35 732.062,337.435 724.675,335.678C716.854,333.818 709.57,330.976 702.813,327.18C694.262,322.376 690.421,312.108 693.72,302.872L701.531,281.001C703.503,275.479 707.78,271.106 713.224,269.002ZM893.533,272.841C902.906,266.245 910.095,258.911 915.1,250.84C920.104,242.769 922.607,234.481 922.607,225.975C922.607,214.635 918.73,205.667 910.977,199.071C903.224,192.475 892.723,189.177 879.473,189.177C874.324,189.177 869.03,189.626 863.591,190.523C858.152,191.419 852.54,192.794 846.754,194.645L843.196,220.768C850.602,217.817 856.503,215.749 860.901,214.563C865.298,213.377 869.174,212.784 872.53,212.784C878.142,212.784 882.598,214.259 885.895,217.21C889.193,220.161 890.842,224.211 890.842,229.36C890.842,233.989 889.251,238.589 886.069,243.159C882.887,247.73 877.708,252.706 870.534,258.087L824.537,292.976L819.937,316.061L907.158,316.061L912.192,292.976L864.893,292.976L893.533,272.841ZM712.667,309.639C717.817,312.532 723.371,314.687 729.33,316.105C735.29,317.522 741.77,318.231 748.771,318.231C760.285,318.231 769.773,316.322 777.237,312.503C784.701,308.684 791.384,302.407 797.285,293.67C802.261,286.322 806.109,277.773 808.828,268.024C811.547,258.275 812.907,248.222 812.907,237.865C812.907,222.475 809.074,210.686 801.408,202.499C793.741,194.312 782.705,190.219 768.298,190.219C754.759,190.219 743.795,194.312 735.406,202.499C727.016,210.686 722.821,221.289 722.821,234.307C722.821,245.184 725.989,253.921 732.325,260.517C738.66,267.113 747.093,270.411 757.623,270.411C762.31,270.411 766.461,269.803 770.077,268.588C773.693,267.373 776.948,265.493 779.841,262.947C777.642,273.767 773.636,282.011 767.821,287.682C762.006,293.352 754.643,296.187 745.733,296.187C741.567,296.187 737.416,295.492 733.279,294.104C729.142,292.715 724.875,290.603 720.478,287.768L712.667,309.639ZM785.222,228.058C785.222,234.481 783.587,239.673 780.318,243.637C777.049,247.6 772.811,249.582 767.604,249.582C763.033,249.582 759.576,248.164 757.233,245.329C754.889,242.494 753.718,238.357 753.718,232.918C753.718,226.612 755.425,221.289 758.838,216.95C762.252,212.61 766.36,210.44 771.162,210.44C775.675,210.44 779.147,211.959 781.577,214.997C784.007,218.034 785.222,222.388 785.222,228.058ZM921.014,324.856L920.688,324.706L920.97,325.056L921.215,324.852L921.223,324.852L921.23,324.846L921.221,324.847C921.094,324.855 921.02,324.856 921.014,324.856ZM931.719,309.639C936.869,312.532 942.423,314.687 948.383,316.105C954.342,317.522 960.822,318.231 967.823,318.231C979.337,318.231 988.826,316.322 996.289,312.503C1003.753,308.684 1010.436,302.407 1016.337,293.67C1021.313,286.322 1025.161,277.773 1027.88,268.024C1030.6,258.275 1031.959,248.222 1031.959,237.865C1031.959,222.475 1028.126,210.686 1020.46,202.499C1012.794,194.312 1001.757,190.219 987.35,190.219C973.811,190.219 962.847,194.312 954.458,202.499C946.068,210.686 941.874,221.289 941.874,234.307C941.874,245.184 945.041,253.921 951.377,260.517C957.712,267.113 966.145,270.411 976.675,270.411C981.362,270.411 985.513,269.803 989.129,268.588C992.746,267.373 996,265.493 998.893,262.947C996.694,273.767 992.688,282.011 986.873,287.682C981.058,293.352 973.696,296.187 964.786,296.187C960.62,296.187 956.468,295.492 952.331,294.104C948.195,292.715 943.928,290.603 939.53,287.768L931.719,309.639ZM1004.274,228.058C1004.274,234.481 1002.639,239.673 999.37,243.637C996.101,247.6 991.863,249.582 986.656,249.582C982.085,249.582 978.628,248.164 976.285,245.329C973.942,242.494 972.77,238.357 972.77,232.918C972.77,226.612 974.477,221.289 977.89,216.95C981.304,212.61 985.412,210.44 990.214,210.44C994.727,210.44 998.199,211.959 1000.629,214.997C1003.059,218.034 1004.274,222.388 1004.274,228.058ZM1110.242,252.272C1120.251,251.231 1128.149,247.991 1133.935,242.552C1139.721,237.113 1142.614,230.286 1142.614,222.07C1142.614,212.118 1138.824,204.293 1131.244,198.594C1123.665,192.895 1113.222,190.045 1099.914,190.045C1094.128,190.045 1088.386,190.407 1082.687,191.13C1076.988,191.853 1071.303,192.967 1065.633,194.472L1061.901,218.859C1067.918,216.892 1073.487,215.416 1078.608,214.433C1083.728,213.449 1088.342,212.957 1092.45,212.957C1098.583,212.957 1103.4,214.245 1106.9,216.819C1110.401,219.394 1112.151,222.909 1112.151,227.364C1112.151,232.629 1109.851,236.347 1105.251,238.516C1100.652,240.686 1092.479,241.771 1080.734,241.771C1079.866,241.771 1078.521,241.742 1076.698,241.684C1074.876,241.626 1073.444,241.597 1072.402,241.597L1067.976,262.86C1068.96,262.86 1070.03,262.846 1071.187,262.817C1072.344,262.788 1073.878,262.773 1075.787,262.773C1084.639,262.773 1091.148,263.844 1095.314,265.985C1099.48,268.125 1101.563,271.481 1101.563,276.052C1101.563,281.491 1099.09,285.816 1094.143,289.027C1089.196,292.238 1082.47,293.843 1073.965,293.843C1068.179,293.843 1062.827,293.207 1057.909,291.934C1052.991,290.661 1048.449,288.752 1044.283,286.206L1037.687,310.767C1044.688,313.486 1051.53,315.526 1058.213,316.886C1064.895,318.245 1071.448,318.925 1077.87,318.925C1095.228,318.925 1108.694,315.352 1118.27,308.207C1127.845,301.061 1132.633,291.066 1132.633,278.222C1132.633,271.626 1130.767,266.158 1127.035,261.819C1123.303,257.479 1117.706,254.297 1110.242,252.272Z" style="fill:rgb(49,49,49);"/>
                        </g>
                        <path d="M712.667,1013.961L720.478,992.09C724.875,994.925 729.142,997.037 733.279,998.426C737.416,999.814 741.567,1000.509 745.733,1000.509C754.643,1000.509 762.006,997.673 767.821,992.003C773.636,986.333 777.642,978.088 779.841,967.269C776.948,969.815 773.693,971.695 770.077,972.91C766.461,974.125 762.31,974.733 757.623,974.733C747.093,974.733 738.66,971.435 732.325,964.839C725.989,958.243 722.821,949.506 722.821,938.629C722.821,925.611 727.016,915.008 735.406,906.821C743.795,898.634 754.759,894.541 768.298,894.541C782.705,894.541 793.741,898.634 801.408,906.821C809.074,915.008 812.907,926.797 812.907,942.187C812.907,952.544 811.547,962.597 808.828,972.346C806.109,982.095 802.261,990.644 797.285,997.992C791.384,1006.728 784.701,1013.006 777.237,1016.825C769.773,1020.643 760.285,1022.553 748.771,1022.553C741.77,1022.553 735.29,1021.844 729.33,1020.426C723.371,1019.009 717.817,1016.854 712.667,1013.961ZM785.222,932.38C785.222,926.71 784.007,922.356 781.577,919.319C779.147,916.281 775.675,914.762 771.162,914.762C766.36,914.762 762.252,916.932 758.838,921.271C755.425,925.611 753.718,930.934 753.718,937.24C753.718,942.679 754.889,946.816 757.233,949.651C759.576,952.486 763.033,953.903 767.604,953.903C772.811,953.903 777.049,951.922 780.318,947.959C783.587,943.995 785.222,938.802 785.222,932.38Z" style="fill:rgb(209,151,88);"/>
                        <path d="M893.533,977.163L864.893,997.297L912.192,997.297L907.158,1020.383L819.937,1020.383L824.537,997.297L870.534,962.409C877.708,957.028 882.887,952.052 886.069,947.481C889.251,942.91 890.842,938.311 890.842,933.682C890.842,928.533 889.193,924.482 885.895,921.532C882.598,918.581 878.142,917.105 872.53,917.105C869.174,917.105 865.298,917.699 860.901,918.885C856.503,920.071 850.602,922.139 843.196,925.09L846.754,898.967C852.54,897.115 858.152,895.741 863.591,894.844C869.03,893.948 874.324,893.499 879.473,893.499C892.723,893.499 903.224,896.797 910.977,903.393C918.73,909.989 922.607,918.957 922.607,930.297C922.607,938.802 920.104,947.091 915.1,955.162C910.095,963.233 902.906,970.567 893.533,977.163Z" style="fill:rgb(209,151,88);"/>
                        <path d="M931.719,1013.961L939.53,992.09C943.928,994.925 948.195,997.037 952.331,998.426C956.468,999.814 960.62,1000.509 964.786,1000.509C973.696,1000.509 981.058,997.673 986.873,992.003C992.688,986.333 996.694,978.088 998.893,967.269C996,969.815 992.746,971.695 989.129,972.91C985.513,974.125 981.362,974.733 976.675,974.733C966.145,974.733 957.712,971.435 951.377,964.839C945.041,958.243 941.874,949.506 941.874,938.629C941.874,925.611 946.068,915.008 954.458,906.821C962.847,898.634 973.811,894.541 987.35,894.541C1001.757,894.541 1012.794,898.634 1020.46,906.821C1028.126,915.008 1031.959,926.797 1031.959,942.187C1031.959,952.544 1030.6,962.597 1027.88,972.346C1025.161,982.095 1021.313,990.644 1016.337,997.992C1010.436,1006.728 1003.753,1013.006 996.289,1016.825C988.826,1020.643 979.337,1022.553 967.823,1022.553C960.822,1022.553 954.342,1021.844 948.383,1020.426C942.423,1019.009 936.869,1016.854 931.719,1013.961ZM1004.274,932.38C1004.274,926.71 1003.059,922.356 1000.629,919.319C998.199,916.281 994.727,914.762 990.214,914.762C985.412,914.762 981.304,916.932 977.89,921.271C974.477,925.611 972.77,930.934 972.77,937.24C972.77,942.679 973.942,946.816 976.285,949.651C978.628,952.486 982.085,953.903 986.656,953.903C991.863,953.903 996.101,951.922 999.37,947.959C1002.639,943.995 1004.274,938.802 1004.274,932.38Z" style="fill:rgb(209,151,88);"/>
                        <path d="M1110.242,956.594C1117.706,958.619 1123.303,961.801 1127.035,966.141C1130.767,970.48 1132.633,975.948 1132.633,982.543C1132.633,995.388 1127.845,1005.383 1118.27,1012.529C1108.694,1019.674 1095.228,1023.247 1077.87,1023.247C1071.448,1023.247 1064.895,1022.567 1058.213,1021.207C1051.53,1019.848 1044.688,1017.808 1037.687,1015.089L1044.283,990.528C1048.449,993.074 1052.991,994.983 1057.909,996.256C1062.827,997.529 1068.179,998.165 1073.965,998.165C1082.47,998.165 1089.196,996.56 1094.143,993.349C1099.09,990.137 1101.563,985.812 1101.563,980.374C1101.563,975.803 1099.48,972.447 1095.314,970.306C1091.148,968.166 1084.639,967.095 1075.787,967.095C1073.878,967.095 1072.344,967.11 1071.187,967.139C1070.03,967.168 1068.96,967.182 1067.976,967.182L1072.402,945.919C1073.444,945.919 1074.876,945.948 1076.698,946.006C1078.521,946.064 1079.866,946.093 1080.734,946.093C1092.479,946.093 1100.652,945.008 1105.251,942.838C1109.851,940.668 1112.151,936.951 1112.151,931.686C1112.151,927.231 1110.401,923.716 1106.9,921.141C1103.4,918.566 1098.583,917.279 1092.45,917.279C1088.342,917.279 1083.728,917.771 1078.608,918.754C1073.487,919.738 1067.918,921.213 1061.901,923.181L1065.633,898.793C1071.303,897.289 1076.988,896.175 1082.687,895.452C1088.386,894.729 1094.128,894.367 1099.914,894.367C1113.222,894.367 1123.665,897.217 1131.244,902.916C1138.824,908.615 1142.614,916.44 1142.614,926.392C1142.614,934.608 1139.721,941.435 1133.935,946.874C1128.149,952.312 1120.251,955.552 1110.242,956.594Z" style="fill:rgb(209,151,88);"/>
                        <g transform="matrix(9.44575,0,0,9.44575,-10448.72606,-7214.329906)">
                            <path d="M1149.202,903.516L1153.919,881.243L1167.005,881.243C1171.139,881.243 1174.248,881.963 1176.331,883.404C1178.415,884.844 1179.456,886.989 1179.456,889.837C1179.456,892.392 1178.626,894.435 1176.966,895.965C1175.306,897.495 1172.954,898.382 1169.911,898.626C1170.855,899.212 1171.587,899.899 1172.108,900.689C1172.288,900.961 1172.455,901.277 1172.609,901.636L1162.518,902.446C1161.936,902.243 1161.169,902.142 1160.218,902.142L1158.558,902.142L1158.425,902.775L1149.202,903.516ZM1173.475,904.704L1175.916,915.935L1166.81,915.935L1164.401,904.927L1173.475,904.704ZM1157.938,905.086L1155.653,915.935L1146.571,915.935L1148.821,905.31L1157.938,905.086ZM1161.561,887.591L1159.925,895.696L1163.221,895.696C1165.37,895.696 1167.03,895.301 1168.202,894.512C1169.373,893.723 1169.959,892.612 1169.959,891.18C1169.959,889.991 1169.557,889.096 1168.751,888.494C1167.945,887.892 1166.753,887.591 1165.174,887.591L1161.561,887.591Z" style="fill:rgb(49,49,49);fill-rule:nonzero;"/>
                        </g>
                        <g transform="matrix(2.657162,0,0,2.657162,-2713.227486,1187.280608)">
                            <path d="M1429.132,30.134L1441.785,-29.207L1524.233,-29.207L1519.287,-6.295L1469.47,-6.295L1464.003,20.348L1511.649,20.348L1510.884,23.984L1429.132,30.134ZM1457.903,48.539L1448.381,94.118L1415.488,94.118L1424.999,49.514L1457.903,48.539Z" style="fill:rgb(49,49,49);"/>
                        </g>
                        <g transform="matrix(9.44575,0,0,9.44575,-10448.72606,-7214.329906)">
                            <path d="M1254.848,895.387L1256.434,887.933L1247.84,887.933L1249.232,881.243L1276.087,881.243L1274.647,887.933L1265.785,887.933L1264.351,894.672L1254.848,895.387ZM1262.768,902.115L1259.828,915.935L1250.477,915.935L1253.358,902.394L1262.768,902.115Z" style="fill:rgb(49,49,49);fill-rule:nonzero;"/>
                        </g>
                        <g transform="matrix(0.848253,0.819149,-0.819149,0.848253,308.326122,-2338.018138)">
                            <path d="M2930.276,1361.491L2880.453,1368.381L2949.444,1331.5C2946.22,1337.934 2939.351,1348.451 2930.276,1361.491ZM2951.515,1321.632L2807.433,1259.015L2959.608,1292.782C2954.616,1301.772 2951.928,1311.67 2951.515,1321.632ZM2965.181,1284.366L2930.79,1213.457L2986.22,1266.747C2979.92,1270.06 2974.062,1274.471 2968.936,1279.968C2967.608,1281.392 2966.356,1282.86 2965.181,1284.366ZM2997.646,1262.069L3012.239,1110.216L3026.638,1260.056C3016.969,1258.55 3007.041,1259.231 2997.646,1262.069ZM3041.068,1264.045L3093.687,1213.457L3062.341,1278.089C3061.886,1277.639 3061.422,1277.194 3060.951,1276.754C3054.973,1271.18 3048.221,1266.948 3041.068,1264.045ZM3072.518,1291.085L3217.044,1259.015L3081.33,1317.995C3080.411,1308.611 3077.465,1299.402 3072.518,1291.085ZM3080.84,1334.605L3144.025,1368.381L3072.047,1358.428C3076.603,1351.017 3079.528,1342.908 3080.84,1334.605ZM3062.58,1370.412L3138.815,1499.778L3038.039,1385.829C3047.026,1382.698 3055.446,1377.551 3062.58,1370.412ZM3025.69,1388.818L3012.239,1464.129L3000.746,1399.786C3009.386,1393.33 3015.464,1389.497 3017.886,1389.447C3020.496,1389.393 3023.103,1389.183 3025.69,1388.818Z" style="fill:rgb(209,151,88);"/>
                        </g>
                    </g>
                </g>
                <rect x="0.375" y="795.822" width="2005.498" height="709.508" style="fill:none;"/>
                <path d="M1706.11,1260.004L960.844,1282.092L979.618,1398.589L892.678,1398.589L884.146,1328.714L879.527,1284.503L778.145,1287.507L755.697,1328.714L716.493,1398.589L624.48,1398.589L688.604,1290.112L59.688,1305.57L698.687,1254.254L710.318,1253.379L818.192,1070.893L926.809,1070.893L953.272,1235.102L1701.854,1178.789C1710.681,1170.525 1722.357,1165.211 1735.365,1164.529C1764.659,1162.994 1789.688,1185.53 1791.223,1214.824C1792.759,1244.118 1770.222,1269.147 1740.928,1270.683C1727.92,1271.364 1715.753,1267.299 1706.11,1260.004ZM874.611,1241.02L862.007,1135.002L800.556,1246.591L874.611,1241.02Z" style="fill:rgb(28,149,206);"/>
            </g>
        </g>
    </g>
</svg>
