<?xml version="1.0" encoding="UTF-8" standalone="no"?><!DOCTYPE svg PUBLIC "-//W3C//DTD SVG 1.1//EN" "http://www.w3.org/Graphics/SVG/1.1/DTD/svg11.dtd"><svg width="100%" height="100%" viewBox="0 0 53 72" version="1.1" xmlns="http://www.w3.org/2000/svg" xmlns:xlink="http://www.w3.org/1999/xlink" xml:space="preserve" xmlns:serif="http://www.serif.com/" style="fill-rule:evenodd;clip-rule:evenodd;stroke-linejoin:round;stroke-miterlimit:2;"><g><path d="M9.969,63.858l-4.903,0c-0.146,0 -0.269,-0.109 -0.286,-0.255l-0.017,-0.141c-0.01,-0.082 0.016,-0.164 0.071,-0.225c0.055,-0.062 0.133,-0.097 0.215,-0.097c0.215,-0 0.316,-0.155 0.374,-0.329c0.129,-0.387 0.068,-0.887 0.059,-0.962l-0.991,-8.781c-0.008,-0.071 -0.051,-0.486 -0.239,-0.805c-0.092,-0.157 -0.222,-0.296 -0.428,-0.296c-0.146,-0 -0.269,-0.11 -0.286,-0.255l-0.017,-0.141c-0.01,-0.082 0.016,-0.164 0.071,-0.225c0.055,-0.061 0.133,-0.097 0.215,-0.097l4.891,-0c0.607,0 1.658,0.06 2.452,0.708c0.537,0.438 0.968,1.142 1.056,2.288c0.12,1.564 -0.803,2.485 -1.826,2.869c0.464,0.18 1.018,0.442 1.526,0.815c0.762,0.559 1.42,1.36 1.575,2.492l0.001,0.009l0.036,0.339l0.001,0.01c0.015,0.205 0.099,1.644 -0.872,2.385c-0.884,0.682 -2.46,0.696 -2.68,0.696Zm-3.049,-7.877l0.75,7.144l1.851,0c0.627,0 1.146,-0.154 1.483,-0.559c0.353,-0.424 0.501,-1.099 0.422,-2.085c-0.101,-1.248 -0.806,-1.866 -1.659,-2.41c-0.932,-0.595 -2.029,-1.108 -2.847,-2.09Zm1.079,-4.002l-1.499,-0l0.206,1.957c0.391,1.778 1.669,2.417 2.409,2.722c0.473,-0.054 0.723,-0.368 0.857,-0.734c0.247,-0.674 0.14,-1.515 0.129,-1.635c-0.025,-0.292 -0.124,-2.31 -2.102,-2.31Z" style="fill:#533417;"/><path d="M15.733,56.944c1.421,-5.052 1.233,-4.567 1.556,-5.511c0.071,-0.208 0.27,-0.186 0.27,-0.186l0.097,0c0.116,0 0.221,0.07 0.266,0.178c2.18,5.242 3.838,9.64 4.157,10.487c0.029,0.076 0.183,0.48 0.404,0.833c0.121,0.194 0.255,0.381 0.41,0.445c0.106,0.043 0.176,0.146 0.179,0.26l0.002,0.113c0.002,0.08 -0.03,0.157 -0.087,0.213c-0.057,0.056 -0.135,0.085 -0.215,0.081l-1.459,-0.07l-1.524,0.07c-0.004,0 -0.009,0 -0.013,0c-0.449,0 -0.838,-0.204 -1.145,-0.47c-0.423,-0.365 -0.685,-0.84 -0.739,-0.938c-0.003,-0.005 -0.006,-0.011 -0.008,-0.016l-0.538,-1.145c-0.003,-0.006 -0.006,-0.012 -0.008,-0.019c-0.049,-0.127 -0.333,-0.864 -0.764,-1.433c-0.217,-0.286 -0.463,-0.543 -0.749,-0.594l-0.696,2.665l-0.048,0.529l0.089,0.446c0.023,0.054 0.111,0.186 0.425,0.304c0.106,0.04 0.179,0.139 0.186,0.252l0.007,0.113c0.005,0.083 -0.026,0.164 -0.085,0.223c-0.059,0.058 -0.141,0.089 -0.224,0.083l-0.759,-0.055l-0.878,0.055c-0.158,0.01 -0.295,-0.11 -0.306,-0.268l-0.008,-0.113c-0.007,-0.101 0.039,-0.198 0.122,-0.256c0.486,-0.34 0.714,-1.166 0.751,-1.297c0.658,-2.504 0.654,-2.47 1.329,-4.976l0.001,-0.003Zm0.289,1.591c0.175,0.037 0.401,0.113 0.629,0.273c0.003,0.002 0.007,0.005 0.01,0.007c0.593,0.454 1.219,1.922 1.297,2.112c0.058,0.139 0.39,0.93 0.869,1.541c0.275,0.35 0.588,0.657 0.943,0.657c0.128,-0 0.187,-0.077 0.216,-0.157c0.047,-0.13 0.041,-0.266 0.04,-0.294c-0.002,-0.06 -0.013,-0.314 -0.161,-0.73l-0.037,-0.095c-0.225,-0.583 -1.337,-3.454 -2.787,-6.984l-0.713,2.545l-0.307,1.125Z" style="fill:#533417;"/><path d="M23.512,63.139c0.371,0 0.512,-0.257 0.569,-0.506c0.076,-0.332 0.023,-0.666 0.023,-0.673l-0.131,-9.156l-0.396,-0.817l-0.162,-0.323c-0.045,-0.089 -0.04,-0.196 0.012,-0.281c0.053,-0.085 0.145,-0.137 0.245,-0.137l1.784,0c0.112,0 0.214,0.065 0.261,0.167c1.05,2.254 1.059,2.196 2.101,4.441l0.001,0.001l1.004,2.192l0.001,0.002c0.115,0.256 0.725,1.639 1.188,2.689l0.129,-7.596c0.001,-0.043 0.053,-0.374 -0.029,-0.695c-0.063,-0.245 -0.223,-0.483 -0.616,-0.483c-0.077,0 -0.151,-0.031 -0.205,-0.086c-0.054,-0.055 -0.084,-0.129 -0.083,-0.206l0.002,-0.141c0.001,-0.078 0.033,-0.152 0.09,-0.206c0.057,-0.054 0.133,-0.082 0.211,-0.079c1.051,0.046 1.005,0.051 2.024,0c0.08,-0.004 0.158,0.025 0.215,0.081c0.057,0.056 0.089,0.133 0.087,0.213l-0.003,0.141c-0.004,0.157 -0.132,0.282 -0.288,0.282c-0.195,0 -0.338,0.044 -0.441,0.124c-0.156,0.123 -0.213,0.317 -0.24,0.495c-0.04,0.257 -0.014,0.497 -0.015,0.582l-0.146,8.26l-0.015,0.856l0.359,0.834l0.001,0.003l0.141,0.339c0.037,0.089 0.027,0.191 -0.026,0.271c-0.053,0.08 -0.143,0.128 -0.24,0.128l-1.665,0c-0.115,0 -0.22,-0.069 -0.265,-0.175c-1.619,-3.783 -3.381,-7.495 -4.293,-9.387l0.105,7.7c0.001,0.064 -0.025,0.291 0.01,0.54c0.025,0.172 0.075,0.364 0.222,0.485c0.093,0.077 0.223,0.119 0.4,0.119c0.158,0 0.287,0.128 0.288,0.286l0.001,0.141c0.001,0.08 -0.032,0.156 -0.089,0.211c-0.057,0.055 -0.135,0.084 -0.215,0.08c-0.956,-0.051 -0.913,-0.046 -1.898,0c-0.078,0.004 -0.154,-0.024 -0.21,-0.078c-0.057,-0.053 -0.09,-0.127 -0.091,-0.205l-0.003,-0.141c-0.001,-0.077 0.028,-0.152 0.082,-0.207c0.054,-0.055 0.128,-0.086 0.206,-0.086Z" style="fill:#533417;"/><path d="M39.761,63.858l-7.73,0c-0.078,0 -0.152,-0.031 -0.207,-0.087c-0.054,-0.056 -0.084,-0.131 -0.082,-0.209l0.004,-0.141c0.004,-0.156 0.132,-0.281 0.288,-0.281c0.237,-0 0.372,-0.169 0.463,-0.36c0.186,-0.388 0.198,-0.891 0.201,-0.973l0.279,-8.781c0.002,-0.066 0.02,-0.475 -0.12,-0.791c-0.063,-0.143 -0.163,-0.269 -0.35,-0.269c-0.078,0 -0.152,-0.031 -0.207,-0.087c-0.054,-0.056 -0.084,-0.131 -0.082,-0.209l0.004,-0.141c0.004,-0.156 0.132,-0.28 0.288,-0.28l8.071,0c0.08,0 0.156,0.033 0.211,0.092c0.055,0.058 0.082,0.137 0.077,0.216l-0.001,0.02l0.227,2.579c0.011,0.124 -0.059,0.241 -0.173,0.29l-0.099,0.042c-0.137,0.059 -0.296,0.004 -0.367,-0.128c-0.498,-0.918 -0.974,-1.52 -1.591,-1.886c-0.618,-0.366 -1.371,-0.494 -2.405,-0.494l-1.324,0l-0.174,4.387l0.185,0c1.037,-0 1.734,-0.086 2.223,-0.494c0.318,-0.265 0.541,-0.664 0.725,-1.243c0.038,-0.12 0.149,-0.201 0.275,-0.201l0.072,-0c0.079,0 0.155,0.033 0.21,0.09c0.054,0.058 0.083,0.135 0.078,0.215l-0.235,4.016c-0.009,0.152 -0.135,0.271 -0.288,0.271l-0.07,0c-0.123,-0 -0.233,-0.078 -0.273,-0.195c-0.265,-0.772 -0.552,-1.217 -0.973,-1.458c-0.433,-0.248 -0.99,-0.284 -1.75,-0.284l-0.207,0l-0.239,6.041l0.932,0c1.959,0 3.164,-0.589 4.394,-2.552c0.072,-0.115 0.214,-0.164 0.341,-0.118l0.079,0.028c0.135,0.048 0.214,0.189 0.185,0.33l-0.586,2.814c-0.028,0.134 -0.146,0.23 -0.282,0.23Z" style="fill:#533417;"/><path d="M40.683,63.139c0.243,0 0.39,-0.173 0.492,-0.368c0.205,-0.389 0.241,-0.894 0.247,-0.978l0.686,-8.781c0.004,-0.054 0.029,-0.353 -0.037,-0.638c-0.045,-0.197 -0.127,-0.409 -0.37,-0.409c-0.08,-0 -0.157,-0.033 -0.211,-0.092c-0.055,-0.059 -0.082,-0.138 -0.076,-0.217l0.01,-0.141c0.011,-0.151 0.137,-0.267 0.288,-0.267l4.369,0c1.656,-0 2.738,0.894 3.363,2.133c0.602,1.194 0.771,2.715 0.615,4.029c-0.206,1.746 -0.909,3.699 -2.073,4.984c-0.806,0.89 -1.831,1.464 -3.061,1.464l-4.253,0c-0.08,0 -0.157,-0.033 -0.211,-0.092c-0.055,-0.059 -0.082,-0.137 -0.076,-0.217l0.01,-0.141c0.011,-0.151 0.136,-0.267 0.288,-0.267Zm3.635,-11.16l-0.958,11.146l1.135,0c0.69,0 1.42,-0.357 2.04,-1.208c0.668,-0.917 1.202,-2.384 1.443,-4.573c0.033,-0.298 0.249,-2.214 -0.31,-3.698c-0.346,-0.918 -1.003,-1.666 -2.245,-1.666l-1.106,0Z" style="fill:#533417;"/><path d="M5.638,70.179l0.663,0l0.004,0.031c0.006,0.053 0.047,0.41 0.362,0.571c0.058,0.03 0.315,0.162 0.807,0.162c0.43,-0 0.655,-0.207 0.697,-0.246c0.042,-0.038 0.267,-0.246 0.226,-0.645c-0.034,-0.326 -0.267,-0.501 -0.307,-0.532c-0.058,-0.043 -0.277,-0.204 -0.815,-0.407l-0.278,-0.104c-0.568,-0.217 -0.8,-0.384 -0.862,-0.429c-0.294,-0.213 -0.429,-0.426 -0.457,-0.47c-0.026,-0.042 -0.163,-0.257 -0.2,-0.575c-0.066,-0.561 0.247,-0.886 0.304,-0.945c0.371,-0.386 1.152,-0.386 1.258,-0.386c0.097,-0 0.815,-0 1.176,0.286c0.36,0.286 0.393,0.607 0.399,0.668l0.003,0.033l-0.674,0l-0.003,-0.033c-0.002,-0.021 -0.012,-0.12 -0.126,-0.238c-0.02,-0.021 -0.114,-0.118 -0.324,-0.171c-0.035,-0.009 -0.21,-0.052 -0.453,-0.052c-0.06,-0 -0.497,-0 -0.709,0.237c-0.212,0.236 -0.182,0.495 -0.177,0.54c0.004,0.033 0.023,0.203 0.157,0.383c0.021,0.029 0.133,0.179 0.344,0.298l0.698,0.314l0.329,0.132c0.095,0.038 0.785,0.313 1.074,0.662c0.285,0.345 0.318,0.682 0.324,0.746c0.006,0.058 0.037,0.373 -0.131,0.721c-0.167,0.347 -0.454,0.5 -0.507,0.528c-0.066,0.035 -0.339,0.181 -0.935,0.181c-0.564,0 -0.885,-0.108 -0.958,-0.132c-0.394,-0.132 -0.591,-0.388 -0.628,-0.435c-0.234,-0.303 -0.27,-0.605 -0.277,-0.662l-0.004,-0.031Z" style="fill:#968568;"/><path d="M10.595,71.288c-0.109,-0.285 -0.682,-1.776 -1.385,-3.553l0.648,-0c0.43,1.104 0.785,2.032 0.853,2.209l0.132,0.529l0.071,0l0.047,-0.529c0.037,-0.177 0.228,-1.104 0.465,-2.209l0.619,0c0.073,0.176 0.459,1.102 0.91,2.204l0.164,0.534l0.065,0l0.056,-0.534c0.038,-0.176 0.239,-1.102 0.486,-2.204l0.584,-0c-0.407,1.776 -0.731,3.268 -0.793,3.553l-0.612,0c-0.074,-0.186 -0.465,-1.162 -0.94,-2.323l-0.146,-0.514l-0.053,0l-0.065,0.514c-0.04,0.186 -0.25,1.162 -0.492,2.323l-0.614,0Z" style="fill:#968568;"/><path d="M17.462,70.375l0.61,0l0.002,0.033c0.002,0.04 0.011,0.234 -0.17,0.48c-0.029,0.039 -0.181,0.246 -0.489,0.373c-0.053,0.022 -0.308,0.127 -0.719,0.127c-0.826,0 -1.238,-0.445 -1.313,-0.526c-0.08,-0.086 -0.488,-0.527 -0.542,-1.327c-0.055,-0.821 0.321,-1.27 0.395,-1.359c0.066,-0.079 0.452,-0.54 1.218,-0.54c0.423,-0 0.718,0.146 0.775,0.174c0.058,0.029 0.352,0.174 0.569,0.546c0.044,0.075 0.217,0.371 0.249,1.033l0.01,0.196l-2.608,0c0.036,0.569 0.32,0.878 0.376,0.939c0.051,0.055 0.339,0.369 0.894,0.369c0.402,0 0.543,-0.121 0.578,-0.151c0.176,-0.152 0.168,-0.305 0.167,-0.335l-0.002,-0.033Zm-2.002,-1.234l1.987,0l-0.004,-0.069c-0.002,-0.04 -0.013,-0.25 -0.15,-0.484c-0.137,-0.234 -0.325,-0.328 -0.361,-0.346c-0.037,-0.019 -0.225,-0.112 -0.516,-0.112c-0.055,0 -0.345,0 -0.62,0.265c-0.275,0.264 -0.328,0.681 -0.336,0.746Z" style="fill:#968568;"/><path d="M21.32,70.375l0.61,0l0.001,0.033c0.001,0.041 0.006,0.234 -0.18,0.48c-0.029,0.039 -0.186,0.246 -0.497,0.373c-0.054,0.022 -0.311,0.127 -0.722,0.127c-0.826,0 -1.229,-0.445 -1.301,-0.526c-0.078,-0.087 -0.477,-0.527 -0.513,-1.327c-0.037,-0.821 0.349,-1.27 0.425,-1.359c0.068,-0.079 0.463,-0.54 1.23,-0.54c0.423,-0 0.715,0.146 0.771,0.174c0.057,0.029 0.348,0.174 0.557,0.546c0.042,0.075 0.209,0.371 0.227,1.033l0.005,0.196l-2.608,0c0.024,0.569 0.301,0.878 0.356,0.939c0.05,0.055 0.331,0.369 0.886,0.369c0.402,-0 0.545,-0.121 0.581,-0.151c0.179,-0.152 0.175,-0.305 0.174,-0.335l-0.001,-0.033Zm-1.975,-1.234l1.987,0l-0.002,-0.069c-0.001,-0.04 -0.008,-0.25 -0.139,-0.484c-0.132,-0.234 -0.318,-0.328 -0.354,-0.346c-0.037,-0.019 -0.222,-0.112 -0.514,-0.112c-0.055,0 -0.345,0 -0.626,0.265c-0.28,0.264 -0.343,0.681 -0.353,0.746Z" style="fill:#968568;"/><path d="M25.03,70.784l0.005,0.496c-0.442,0.107 -0.621,0.107 -0.676,0.107c-0.338,-0 -0.568,-0.112 -0.613,-0.134c-0.042,-0.021 -0.274,-0.134 -0.422,-0.388c-0.147,-0.255 -0.157,-0.746 -0.159,-0.812l-0.037,-1.827l-0.641,0l-0.012,-0.491l0.643,0l-0.017,-0.84l0.622,0l0.014,0.84l1.081,0l0.005,0.491l-1.078,0l0.028,1.659c0.001,0.053 0.008,0.471 0.086,0.653c0.078,0.182 0.215,0.255 0.241,0.268c0.028,0.015 0.163,0.087 0.388,0.087c0.044,0 0.18,0 0.542,-0.109Z" style="fill:#968568;"/><path d="M29.32,71.288c0.021,-1.48 0.042,-2.961 0.063,-4.441l-1.762,0l0.002,-0.496l4.178,0l-0.014,0.496l-1.735,0c-0.027,1.48 -0.053,2.961 -0.08,4.441l-0.654,0Z" style="fill:#968568;"/><path d="M32.851,71.288l-0.604,0c0.037,-1.184 0.073,-2.368 0.11,-3.553l0.616,0l-0.021,0.626c0.163,-0.27 0.314,-0.392 0.349,-0.42c0.186,-0.15 0.359,-0.215 0.393,-0.228c0.208,-0.078 0.386,-0.078 0.42,-0.078c0.191,-0 0.305,0.044 0.33,0.053l-0.026,0.613c-0.034,-0.016 -0.215,-0.102 -0.459,-0.102c-0.348,0 -0.641,0.254 -0.685,0.293c-0.337,0.292 -0.359,0.951 -0.362,1.038l-0.06,1.756Z" style="fill:#968568;"/><path d="M37.25,70.375l0.61,0l-0.002,0.033c-0.003,0.042 -0.015,0.234 -0.223,0.48c-0.033,0.039 -0.208,0.246 -0.531,0.373c-0.055,0.022 -0.323,0.127 -0.733,0.127c-0.826,0 -1.188,-0.444 -1.254,-0.526c-0.072,-0.088 -0.429,-0.527 -0.394,-1.327c0.036,-0.821 0.464,-1.272 0.547,-1.359c0.512,-0.54 1.166,-0.54 1.278,-0.54c0.423,-0 0.701,0.146 0.755,0.174c0.054,0.028 0.332,0.174 0.508,0.546c0.036,0.076 0.175,0.371 0.134,1.033l-0.012,0.196l-2.608,0c-0.027,0.569 0.221,0.877 0.272,0.939c0.045,0.056 0.298,0.369 0.853,0.369c0.402,-0 0.557,-0.122 0.595,-0.151c0.193,-0.152 0.202,-0.304 0.204,-0.335l0.002,-0.033Zm-1.864,-1.234l1.987,0l0.004,-0.069c0.002,-0.039 0.015,-0.25 -0.096,-0.484c-0.111,-0.234 -0.288,-0.328 -0.323,-0.346c-0.036,-0.019 -0.212,-0.112 -0.504,-0.112c-0.057,0 -0.345,0 -0.649,0.265c-0.304,0.264 -0.404,0.68 -0.42,0.746Z" style="fill:#968568;"/><path d="M40.901,71.288c-0.071,-0.288 -0.058,-0.454 -0.055,-0.494c-0.43,0.385 -0.652,0.465 -0.718,0.489c-0.289,0.104 -0.502,0.104 -0.547,0.104c-0.432,0 -0.68,-0.22 -0.725,-0.26c-0.047,-0.042 -0.294,-0.26 -0.264,-0.715c0.034,-0.515 0.429,-0.754 0.496,-0.794c0.462,-0.28 1.431,-0.46 1.561,-0.484l0.334,-0.061l0.032,-0.402c0.003,-0.039 0.026,-0.326 -0.193,-0.458c-0.037,-0.023 -0.219,-0.132 -0.54,-0.132c-0.385,0 -0.57,0.133 -0.611,0.162c-0.226,0.161 -0.239,0.343 -0.241,0.378l-0.004,0.051l-0.668,0l0.003,-0.046c0.003,-0.043 0.016,-0.237 0.239,-0.487c0.036,-0.04 0.224,-0.251 0.577,-0.378c0.058,-0.021 0.353,-0.127 0.762,-0.127c0.404,0 0.672,0.1 0.727,0.121c0.322,0.121 0.434,0.289 0.458,0.326c0.136,0.205 0.094,0.708 0.089,0.77l-0.114,1.382l-0.028,0.476c-0.002,0.047 -0.009,0.249 0.068,0.58l-0.638,0Zm0.049,-1.794l-0.187,0.043c-0.101,0.024 -0.947,0.221 -1.22,0.419c-0.272,0.197 -0.288,0.426 -0.291,0.47c-0.01,0.14 0.047,0.242 0.057,0.261c0.011,0.019 0.067,0.121 0.212,0.188c0.145,0.067 0.27,0.067 0.294,0.067c0.043,0 0.253,0 0.511,-0.145c0.04,-0.023 0.258,-0.145 0.414,-0.387c0.026,-0.04 0.157,-0.242 0.182,-0.562l0.028,-0.354Z" style="fill:#968568;"/><path d="M44.621,70.784l-0.05,0.496c-0.453,0.107 -0.632,0.107 -0.687,0.107c-0.338,-0 -0.555,-0.111 -0.598,-0.134c-0.04,-0.02 -0.26,-0.134 -0.379,-0.388c-0.119,-0.255 -0.075,-0.747 -0.069,-0.812l0.165,-1.827l-0.641,0l0.043,-0.491l0.643,0l0.076,-0.84l0.622,0l-0.079,0.84l1.081,0l-0.049,0.491l-1.078,0l-0.155,1.659c-0.005,0.052 -0.044,0.471 0.013,0.653c0.057,0.182 0.186,0.255 0.211,0.268c0.027,0.015 0.154,0.087 0.378,0.087c0.045,0 0.18,0 0.554,-0.109Z" style="fill:#968568;"/><path d="M45.175,70.349l0.607,0l-0.001,0.013c-0.024,0.229 0.115,0.358 0.14,0.38c0.164,0.151 0.54,0.151 0.589,0.151c0.376,0 0.588,-0.149 0.63,-0.178c0.254,-0.178 0.278,-0.381 0.283,-0.42c0.038,-0.328 -0.356,-0.451 -0.405,-0.466l-0.302,-0.092l-0.2,-0.064l-0.409,-0.127c-0.699,-0.257 -0.645,-0.772 -0.637,-0.855c0.007,-0.067 0.044,-0.42 0.431,-0.738c0.388,-0.318 0.999,-0.318 1.09,-0.318c0.08,-0 0.691,-0 0.951,0.272c0.26,0.272 0.226,0.553 0.22,0.603l-0.002,0.013l-0.619,0l0.001,-0.013c0.003,-0.025 0.021,-0.178 -0.154,-0.28c-0.034,-0.02 -0.175,-0.102 -0.485,-0.102c-0.371,-0 -0.546,0.121 -0.584,0.148c-0.213,0.147 -0.233,0.33 -0.236,0.364c-0.018,0.165 0.08,0.253 0.098,0.268c0.026,0.023 0.115,0.103 0.407,0.187l0.286,0.079l0.209,0.061l0.537,0.173l0.207,0.132c0.142,0.114 0.187,0.251 0.196,0.276c0.01,0.029 0.054,0.161 0.028,0.378c-0.009,0.076 -0.06,0.503 -0.472,0.847c-0.411,0.344 -1.023,0.344 -1.118,0.344c-0.45,-0 -0.678,-0.106 -0.731,-0.131c-0.282,-0.131 -0.409,-0.325 -0.434,-0.361c-0.025,-0.037 -0.152,-0.231 -0.121,-0.533l0.001,-0.013Z" style="fill:#968568;"/><path d="M16.958,44.7c-1.154,4.549 -11.791,7.5 -15.844,-0.435c-3.282,-6.425 1.265,-11.645 6.175,-12.98c8.001,-2.176 14.386,4.225 23.831,11.169c9.207,6.769 14.445,4.97 14.445,4.97c-1.096,0.073 -5.766,0.383 -12.936,-4.611c-2.011,-1.401 0.945,0.405 1.578,0.718c7.608,3.756 11.11,2.851 12.066,2.604c2.935,-0.758 4.469,-3.375 4.245,-5.921c-0.514,-5.853 -8.091,-7.773 -9.874,-3.264c-1.597,4.041 3.11,5.799 4.066,4.407c0.591,-0.861 -0.762,-0.438 -1.13,-1.147c-0.835,-1.609 2.285,-2.204 3.12,-0.372c2.028,4.454 -6.633,5.647 -8.209,-0.135c-1.373,-5.038 5.202,-9.647 10.91,-5.249c5.313,4.094 4.14,15.809 -8.721,13.929c-13.246,-1.937 -22.065,-18.382 -33.202,-15.177c-5.694,1.639 -5.886,8.234 -5.328,6.302c1.279,-4.431 5.713,-7.05 10.655,-5.444c1.362,0.443 -0.287,0.107 -0.312,0.101c-2.455,-0.528 -5.037,0.134 -6.528,1.329c-5.979,4.789 -1.192,13.184 6.203,11.01c0.628,-0.185 1.849,-1.068 1.847,-1.089c-0.48,0.893 -3.282,3.044 -6.094,2.391c3.025,1.292 6.226,-1.197 6.832,-2.508c1.264,-2.736 -0.507,-5.828 -2.652,-6.019c-3.066,-0.274 -3.307,2.577 -1.986,2.426c1.555,-0.178 1.118,1.473 0.252,1.71c-2.81,0.771 -4.573,-3.274 -1.587,-5.233c4.168,-2.736 9.358,1.869 8.177,6.52Z" style="fill:#3f3f3d;"/><path d="M37.212,17.645c1.254,-0.117 1.721,-0.062 1.371,-0.182c-1.325,-0.453 -5.639,0.435 -7.461,3.233c-2.625,4.032 -1.375,6.552 -0.745,8.609c0.12,0.393 1.262,4.123 -1.707,4.85c-0.639,0.156 0.065,-0.347 0.18,-0.504c1.023,-1.392 -0.221,-4.089 -0.275,-4.237c-0.302,-0.835 -2.368,-6.553 2.097,-10.9c6.7,-6.522 16.571,-0.673 15.348,7.058c-0.942,5.956 -6.892,7.444 -10.265,5.49c-4.895,-2.837 -3.175,-8.738 0.053,-9.775c5.246,-1.686 7.107,4.1 4.603,5.609c-1.974,1.19 -3.334,-0.93 -2.287,-1.567c0.564,-0.343 1.081,-0.016 1.217,0.025c0.663,0.198 0.451,-1.739 -0.665,-2.255c-3.739,-1.73 -6.363,4.913 -1.327,6.825c2.459,0.934 5.192,-0.493 6.202,-2.565c3.112,-6.382 -4.605,-12.57 -10.815,-6.779c-0.978,0.912 -2.149,3.168 -1.611,1.976c1.852,-4.103 4.461,-4.654 6.087,-4.911Z" style="fill:#3f3f3d;"/><path d="M15.367,19.752c-0.068,0.078 -0.711,0.329 -0.813,0.377c-3.717,1.758 -3.838,6.905 -0.267,7.953c2.847,0.835 4.529,-2.061 3.516,-3.268c-0.944,-1.124 -1.207,0.15 -1.713,0.316c-1.784,0.583 -1.779,-2.72 0.705,-2.74c3.942,-0.031 4.669,6.408 -0.062,7.435c-5.607,1.217 -9.624,-4.909 -6.98,-9.12c3.938,-6.271 12.369,-4.127 14.235,1.013c1.926,5.306 -2.523,7.91 -2.042,7.199c1.583,-2.342 0.874,-6.011 -0.238,-7.625c-3.5,-5.082 -10.607,-1.834 -10.897,1.715c-0.023,0.277 0.222,-0.278 0.234,-0.306c0.798,-1.81 3.24,-2.996 4.322,-2.948Z" style="fill:#3f3f3d;"/><path d="M27.905,6.387c-0.798,0.426 -5.721,2.199 -5.669,6.405c0.029,2.347 1.091,3.337 1.096,3.343c0.249,0.363 -2.4,-0.97 -2.484,-4.049c-0.09,-3.287 2.598,-5.142 2.713,-5.238c1.45,-1.203 6.885,-3.479 5.468,-6.507c-0.456,-0.974 0.513,0.422 0.647,0.712c0.335,0.722 0.546,1.357 0.634,1.926c0.978,6.356 -4.864,4.224 -6.887,8.4c0.606,-2.678 4.274,-4.68 4.531,-4.889c0.004,-0.07 0.015,-0.076 -0.049,-0.103Z" style="fill:#3f3f3d;"/><path d="M33.841,10.284c0.039,0.663 0.443,3.275 -2.166,5.245c-2.602,1.964 -7.562,0.054 -6.121,-3.625c0.951,-2.426 4.591,-2.35 4.18,-0.401c-0.128,0.609 -0.794,0.834 -1.177,0.566c-1.63,-1.144 -2.28,2.505 0.631,2.346c3.096,-0.168 4.653,-4.567 1.761,-7.805c-0.26,-0.291 0.623,0.022 1.498,0.868c1.048,1.013 1.346,2.561 1.394,2.807Z" style="fill:#3f3f3d;"/><path d="M33.684,36.527c0.853,0 1.545,0.693 1.545,1.547c0,0.854 -0.692,1.547 -1.545,1.547c-0.853,0 -1.545,-0.693 -1.545,-1.547c0,-0.854 0.692,-1.547 1.545,-1.547Zm0.598,0.46c-0.235,0 -0.426,0.191 -0.426,0.426c0,0.235 0.191,0.426 0.426,0.426c0.235,0 0.426,-0.191 0.426,-0.426c0,-0.235 -0.191,-0.426 -0.426,-0.426Z" style="fill:#533417;"/><path d="M25.013,30.641c0.853,0 1.545,0.693 1.545,1.547c0,0.854 -0.692,1.547 -1.545,1.547c-0.853,0 -1.545,-0.693 -1.545,-1.547c0,-0.854 0.692,-1.547 1.545,-1.547Zm0.638,0.487c-0.235,0 -0.426,0.191 -0.426,0.426c0,0.235 0.191,0.426 0.426,0.426c0.235,0 0.426,-0.191 0.426,-0.426c0,-0.235 -0.191,-0.426 -0.426,-0.426Z" style="fill:#533417;"/><path d="M26.199,17.866c0.853,0 1.545,0.693 1.545,1.547c0,0.854 -0.692,1.547 -1.545,1.547c-0.853,0 -1.545,-0.693 -1.545,-1.547c0,-0.854 0.692,-1.547 1.545,-1.547Zm0.632,0.544c-0.235,0 -0.426,0.191 -0.426,0.426c0,0.235 0.191,0.426 0.426,0.426c0.235,0 0.426,-0.191 0.426,-0.426c0,-0.235 -0.191,-0.426 -0.426,-0.426Z" style="fill:#533417;"/><path d="M27.905,6.387c0.064,0.028 0.052,0.034 0.049,0.103c-0.016,-0.031 0.031,-0.028 0.017,-0.056c-0.003,-0.006 -0,-0 -0.066,-0.047Z" style="fill:#6d635a;"/></g></svg>