<?xml version="1.0" encoding="UTF-8" standalone="no"?><!DOCTYPE svg PUBLIC "-//W3C//DTD SVG 1.1//EN" "http://www.w3.org/Graphics/SVG/1.1/DTD/svg11.dtd"><svg width="100%" height="100%" viewBox="0 0 1079 785" version="1.1" xmlns="http://www.w3.org/2000/svg" xmlns:xlink="http://www.w3.org/1999/xlink" xml:space="preserve" xmlns:serif="http://www.serif.com/" style="fill-rule:evenodd;clip-rule:evenodd;stroke-linejoin:round;stroke-miterlimit:2;"><path d="M273.532,784.531c-4.996,0 -9.462,-0.647 -13.398,-1.938c-3.937,-1.292 -7.375,-3.144 -10.313,-5.554l2.645,-5.818c2.056,1.53 4.127,2.807 6.213,3.835c2.086,1.029 4.333,1.793 6.744,2.291c2.408,0.5 5.112,0.749 8.109,0.749c5.229,0 9.107,-0.968 11.635,-2.908c2.526,-1.939 3.79,-4.524 3.79,-7.757c0,-2.761 -0.882,-4.877 -2.644,-6.346c-1.763,-1.468 -4.848,-2.644 -9.256,-3.526l-9.254,-1.85c-5.701,-1.175 -9.947,-3.085 -12.737,-5.73c-2.792,-2.644 -4.187,-6.227 -4.187,-10.754c0,-3.702 0.954,-6.932 2.864,-9.695c1.91,-2.762 4.598,-4.906 8.066,-6.435c3.466,-1.527 7.492,-2.292 12.076,-2.292c4.407,0 8.431,0.662 12.075,1.984c3.643,1.322 6.757,3.248 9.343,5.773l-2.556,5.642c-2.763,-2.469 -5.656,-4.245 -8.682,-5.333c-3.027,-1.087 -6.45,-1.631 -10.269,-1.631c-4.819,0 -8.624,1.044 -11.414,3.129c-2.792,2.087 -4.187,4.923 -4.187,8.506c0,2.88 0.881,5.128 2.644,6.743c1.763,1.617 4.672,2.836 8.726,3.658l9.343,1.851c5.994,1.234 10.401,3.085 13.222,5.553c2.82,2.468 4.231,5.936 4.231,10.401c0,3.409 -0.926,6.434 -2.777,9.079c-1.851,2.644 -4.481,4.701 -7.888,6.17c-3.409,1.468 -7.464,2.203 -12.164,2.203" style="fill-rule:nonzero;"/><path d="M316.985,783.738l0,-62.141l5.729,0l39.841,52.886l-2.028,0l0,-52.886l6.788,0l0,62.141l-5.642,0l-39.84,-52.886l1.939,0l0,52.886l-6.787,0Z" style="fill-rule:nonzero;"/><path d="M415.969,729.97l-14.279,33.494l-2.116,-1.586l32.79,0l-1.587,1.586l-14.632,-33.494l-0.176,0Zm-30.498,53.768l27.413,-62.141l6.347,0l27.853,62.141l-7.58,0l-7.757,-17.717l3.261,1.85l-37.99,0l3.526,-1.85l-7.58,17.717l-7.493,0Z" style="fill-rule:nonzero;"/><path d="M491.243,784.531c-6.229,0 -11.518,-1.292 -15.866,-3.878c-4.349,-2.585 -7.683,-6.258 -10.004,-11.018c-2.322,-4.759 -3.482,-10.43 -3.482,-17.011c0,-6.581 1.16,-12.238 3.482,-16.968c2.321,-4.729 5.655,-8.388 10.004,-10.974c4.348,-2.586 9.637,-3.879 15.866,-3.879c4.407,0 8.344,0.677 11.812,2.028c3.466,1.352 6.492,3.32 9.078,5.906l-2.732,5.817c-2.821,-2.468 -5.613,-4.275 -8.374,-5.42c-2.763,-1.147 -5.993,-1.719 -9.696,-1.719c-7.11,0 -12.516,2.203 -16.218,6.61c-3.702,4.407 -5.553,10.608 -5.553,18.599c0,7.992 1.851,14.206 5.553,18.641c3.702,4.438 9.108,6.656 16.218,6.656c3.703,0 6.933,-0.574 9.696,-1.719c2.761,-1.146 5.553,-2.982 8.374,-5.509l2.732,5.905c-2.586,2.528 -5.612,4.482 -9.078,5.862c-3.468,1.38 -7.405,2.071 -11.812,2.071" style="fill-rule:nonzero;"/><path d="M533.287,783.738l0,-62.141l7.315,0l0,28.205l0.178,0l29.791,-28.205l9.343,0l-34.287,32.084l0.088,-3.702l36.668,33.759l-9.607,0l-31.996,-29.264l-0.178,0l0,29.264l-7.315,0Z" style="fill-rule:nonzero;"/><path d="M636.941,777.833l18.157,0c4.465,0 8.006,-0.866 10.621,-2.601c2.615,-1.732 3.923,-4.628 3.923,-8.681c0,-4.114 -1.308,-7.037 -3.923,-8.771c-2.615,-1.732 -6.156,-2.6 -10.621,-2.6l-18.157,0l0,22.653Zm0,-28.471l16.659,0c4.818,0 8.431,-0.939 10.841,-2.82c2.409,-1.88 3.614,-4.584 3.614,-8.109c0,-3.643 -1.205,-6.391 -3.614,-8.242c-2.41,-1.851 -6.023,-2.776 -10.841,-2.776l-16.659,0l0,21.947Zm-7.14,34.376l0,-62.14l24.857,0c6.58,0 11.664,1.41 15.249,4.23c3.583,2.82 5.376,6.817 5.376,11.987c0,3.879 -1.161,7.112 -3.482,9.697c-2.322,2.586 -5.539,4.29 -9.651,5.112l0,-1.234c4.583,0.529 8.182,2.101 10.797,4.715c2.614,2.616 3.923,6.126 3.923,10.534c0,5.523 -1.837,9.755 -5.509,12.692c-3.673,2.939 -8.858,4.407 -15.558,4.407l-26.002,0Z" style="fill-rule:nonzero;"/><path d="M722.175,729.97l-14.279,33.494l-2.116,-1.586l32.79,0l-1.586,1.586l-14.632,-33.494l-0.177,0Zm-30.497,53.768l27.412,-62.141l6.347,0l27.853,62.141l-7.581,0l-7.756,-17.717l3.261,1.85l-37.989,0l3.525,-1.85l-7.58,17.717l-7.492,0Z" style="fill-rule:nonzero;"/><path d="M778.762,751.125l17.012,0c4.701,0 8.27,-1.014 10.71,-3.041c2.437,-2.027 3.657,-4.949 3.657,-8.77c0,-3.819 -1.22,-6.728 -3.657,-8.726c-2.44,-1.997 -6.009,-2.997 -10.71,-2.997l-17.012,0l0,23.534Zm-7.315,32.613l0,-62.14l25.384,0c6.523,0 11.577,1.542 15.161,4.627c3.583,3.085 5.377,7.39 5.377,12.913c0,3.644 -0.808,6.743 -2.424,9.299c-1.617,2.556 -3.878,4.51 -6.787,5.862c-2.909,1.351 -6.302,2.027 -10.18,2.027l1.586,-1.146l1.762,0c2.41,0 4.569,0.588 6.48,1.762c1.908,1.177 3.422,3.145 4.539,5.907l8.814,20.889l-8.021,0l-8.462,-20.537c-1,-2.644 -2.498,-4.363 -4.495,-5.156c-1.998,-0.794 -4.495,-1.191 -7.492,-1.191l-13.927,0l0,26.884l-7.315,0Z" style="fill-rule:nonzero;"/><rect x="0" y="754.88" width="195" height="5"/><rect x="884" y="755.38" width="195" height="5"/><path d="M110.535,669.285c18.782,0 34.917,-2.661 48.4,-7.993c13.478,-5.327 23.703,-12.449 30.665,-21.364c6.961,-8.912 10.442,-18.603 10.442,-29.067c0,-3.097 -0.331,-6.104 -0.994,-9.011c-2.875,-14.919 -11.328,-26.305 -25.361,-34.154c-14.037,-7.848 -32.985,-11.771 -56.853,-11.771l-61.661,0l0,113.36l55.362,0Zm8.951,-116.849c8.396,0 16.959,-1.789 25.692,-5.377c8.728,-3.584 16.078,-9.056 22.045,-16.422c5.967,-7.363 8.951,-16.178 8.951,-26.452c0,-1.548 -0.223,-4.259 -0.663,-8.138c-2.212,-13.176 -8.345,-22.768 -18.399,-28.777c-10.059,-6.004 -24.257,-9.01 -42.599,-9.01l-59.34,0l0,94.176l64.313,0Zm-102.768,115.832c3.978,-2.035 6.962,-5.713 8.951,-11.046c1.989,-5.327 2.983,-12.934 2.983,-22.817l0,-141.265c0,-9.882 -0.994,-17.486 -2.983,-22.818c-1.989,-5.327 -4.973,-9.01 -8.951,-11.045c-3.978,-2.035 -9.505,-3.052 -16.576,-3.052l0,-1.454l122.327,0c13.924,0 26.795,1.89 38.621,5.669c11.82,3.779 21.269,9.402 28.344,16.859c7.071,7.462 10.608,16.522 10.608,27.177c0,7.752 -2.874,15.26 -8.619,22.527c-5.749,7.266 -12.929,13.325 -21.548,18.167c-8.619,4.845 -17.021,7.657 -25.194,8.429c13.26,0 26.132,2.28 38.62,6.831c12.484,4.555 22.651,11.045 30.499,19.475c7.842,8.429 11.769,18.166 11.769,29.212c0,16.087 -5.916,28.876 -17.736,38.368c-11.826,9.497 -26.024,16.087 -42.599,19.766c-16.575,3.682 -33.042,5.522 -49.395,5.522l-115.697,0l0,-1.453c7.071,0 12.598,-1.017 16.576,-3.052" style="fill-rule:nonzero;"/><path d="M283.58,668.268c3.978,-2.035 6.961,-5.714 8.951,-11.046c1.988,-5.327 2.983,-12.934 2.983,-22.817l0,-141.265c0,-9.883 -0.995,-17.486 -2.983,-22.818c-1.99,-5.327 -4.973,-9.01 -8.951,-11.045c-3.978,-2.035 -9.505,-3.052 -16.576,-3.052l0,-1.454l83.541,0l0,1.454c-7.076,0 -12.598,1.017 -16.576,3.052c-3.978,2.035 -6.961,5.718 -8.951,11.045c-1.989,5.332 -2.983,12.935 -2.983,22.818l0,141.265c0,9.883 0.994,17.49 2.983,22.817c1.99,5.332 4.973,9.011 8.951,11.046c3.978,2.034 9.5,3.052 16.576,3.052l0,1.453l-83.541,0l0,-1.453c7.071,0 12.598,-1.018 16.576,-3.052" style="fill-rule:nonzero;"/><path d="M487.784,668.268c3.979,-2.035 6.962,-5.714 8.951,-11.046c1.989,-5.327 2.984,-12.934 2.984,-22.817l0,-176.727l-68.955,0c-16.134,0 -27.183,3.974 -33.15,11.917c-5.967,7.948 -8.951,17.54 -8.951,28.777l-1.657,0l0,-43.601l251.947,0l0,43.601l-1.658,0c0,-11.237 -2.984,-20.829 -8.951,-28.777c-5.967,-7.943 -17.019,-11.917 -33.15,-11.917l-68.954,0l0,176.727c0,9.883 0.994,17.49 2.982,22.817c1.991,5.332 4.973,9.011 8.952,11.046c3.978,2.034 9.5,3.052 16.576,3.052l0,1.453l-83.541,0l0,-1.453c7.07,0 12.597,-1.018 16.575,-3.052" style="fill-rule:nonzero;"/><path d="M691.99,668.268c3.977,-2.035 6.961,-5.714 8.949,-11.046c1.99,-5.327 2.985,-12.934 2.985,-22.817l0,-141.265c0,-9.883 -0.995,-17.486 -2.985,-22.818c-1.988,-5.327 -4.972,-9.01 -8.949,-11.045c-3.979,-2.035 -9.506,-3.052 -16.576,-3.052l0,-1.454l184.65,0l0,43.601l-1.658,0c0,-11.237 -2.982,-20.829 -8.949,-28.777c-5.969,-7.943 -17.022,-11.917 -33.153,-11.917l-85.859,0l0,102.316l54.699,0c11.27,0 19.942,-0.872 26.024,-2.617c6.074,-1.744 10.275,-4.36 12.595,-7.847c2.323,-3.489 3.483,-8.33 3.483,-14.534l1.656,0l0,52.902l-1.656,0c0,-6.199 -1.16,-11.046 -3.483,-14.533c-2.32,-3.489 -6.521,-6.105 -12.595,-7.849c-6.082,-1.744 -14.754,-2.616 -26.024,-2.616l-54.699,0l0,106.967l89.176,0c16.129,0 27.183,-3.97 33.15,-11.918c5.967,-7.944 8.951,-17.535 8.951,-28.777l1.657,0l0,43.601l-187.965,0l0,-1.453c7.07,0 12.597,-1.018 16.576,-3.052" style="fill-rule:nonzero;"/><path d="M901.5,655.042l-0.662,-45.926l1.658,0c0,11.045 4.525,21.464 13.592,31.247c9.058,9.787 20.439,17.585 34.144,23.399c13.702,5.813 26.961,8.82 39.782,9.01c10.826,-0.19 20.994,-2.129 30.498,-5.813c9.5,-3.679 17.181,-9.106 23.041,-16.277c5.853,-7.167 8.785,-15.791 8.785,-25.869c0,-10.075 -3.264,-18.459 -9.779,-25.144c-6.522,-6.685 -14.645,-12.107 -24.368,-16.277c-9.726,-4.164 -22.656,-8.67 -38.785,-13.516c-17.463,-5.423 -31.443,-10.414 -41.937,-14.97c-10.498,-4.551 -19.393,-10.705 -26.686,-18.457c-7.293,-7.748 -10.939,-17.631 -10.939,-29.648c0,-10.655 3.531,-20.152 10.607,-28.486c7.07,-8.33 16.959,-14.824 29.67,-19.474c12.707,-4.652 27.236,-6.977 43.594,-6.977c14.363,0 27.955,1.503 40.775,4.506c12.815,3.006 26.961,8.479 42.434,16.422l0.662,45.926l-1.656,0c0,-11.237 -4.201,-21.75 -12.598,-31.537c-8.402,-9.784 -19.062,-17.631 -31.99,-23.544c-12.93,-5.909 -25.916,-8.866 -38.953,-8.866c-9.727,0 -18.897,1.939 -27.516,5.813c-8.619,3.879 -15.529,9.111 -20.719,15.696c-5.195,6.59 -7.791,13.567 -7.791,20.929c0,9.691 3.151,17.78 9.45,24.271c6.298,6.494 14.14,11.772 23.537,15.841c9.39,4.07 22.045,8.624 37.957,13.661c17.902,5.814 32.209,11.096 42.929,15.842c10.719,4.75 19.834,11.29 27.35,19.62c7.512,8.334 11.271,18.798 11.271,31.392c0,10.854 -3.812,20.687 -11.435,29.503c-7.625,8.82 -18.182,15.746 -31.66,20.783c-13.483,5.036 -28.51,7.557 -45.086,7.557c-33.373,0 -63.1,-6.876 -89.176,-20.637" style="fill-rule:nonzero;"/><path d="M764.092,324.032c-17.533,18.421 -41.22,32.386 -71.061,41.89c-9.424,3.001 -19.168,5.5 -29.216,7.573c-32.451,6.693 -75.613,-1.723 -98.984,-11.621c-23.825,-10.093 -44.3,-23.706 -61.426,-40.834c-16.164,-16.16 -29.461,-32.681 -45.074,-55.589c0.169,-0.186 46.245,-132.388 52.267,-147.878c6.022,-15.488 6.93,-19.116 14.902,-31.308c17,-26 56.522,-23 56.522,18.988l0,171.081c0,11.969 -1.204,21.181 -3.613,27.633c-2.409,6.457 -6.023,10.913 -10.84,13.377c-4.817,2.464 -11.511,3.696 -20.074,3.696l0,1.76l101.173,0l0,-1.76c-8.569,0 -15.257,-1.232 -20.074,-3.696c-4.818,-2.464 -8.431,-6.92 -10.84,-13.377c-2.408,-6.452 -3.614,-15.664 -3.614,-27.633l0,-12.321c17.666,-30.273 42.557,-53.386 74.675,-69.347c10.702,-5.396 22.346,-8.097 34.929,-8.097c15.789,0 29.709,4.461 41.754,13.377c12.044,8.921 19.672,21.242 22.884,36.961c1.337,6.106 2.008,13.262 2.008,21.474c0,25.345 -8.771,47.231 -26.298,65.651m-149.952,-261.021l71.865,0c41.754,0 65.04,15.258 69.857,45.762c0.533,3.757 0.803,6.457 0.803,8.097c0,26.285 -21.548,50.107 -64.638,71.46c-33.46,16.192 -59.419,39.425 -77.887,69.699l0,-195.018Zm194.517,149.784c-7.898,-11.144 -18.205,-19.592 -30.914,-25.346c-12.715,-5.748 -26.165,-8.624 -40.348,-8.624c-5.089,0 -10.038,0.352 -14.855,1.056c10.702,-3.52 21.078,-8.801 31.114,-15.841c10.037,-7.04 18.13,-15.313 24.289,-24.817c6.155,-9.505 8.695,-19.416 7.628,-29.746c-1.875,-17.6 -11.109,-30.45 -27.702,-38.546c-16.598,-8.096 -37.337,-12.144 -62.228,-12.144l-134.29,0c0,0.007 -0.001,0.015 -0.002,0.022c-15.052,0.256 -27.746,5.872 -38.071,16.874c-10.576,11.266 -18.938,24.938 -25.092,41.011c-6.16,16.077 -43.096,129.718 -48.178,137.463l-55.805,-88.005c-24.089,-37.781 -45.769,-67.878 -65.04,-90.292c-19.271,-22.409 -43.227,-40.659 -71.864,-54.739c-28.636,-14.081 -63.565,-21.121 -104.786,-21.121c-20.877,0 -40.812,3.052 -59.82,9.152c-19.001,6.105 -34.928,15.373 -47.776,27.81l1.204,1.76c25.162,-21.122 56.879,-31.682 95.151,-31.682c39.345,0 72.605,7.568 99.767,22.705c19.549,10.894 37.812,25.239 54.801,43.001c1.454,8.932 2.182,23.206 2.182,32.507l0,171.081c0,11.969 -1.204,21.181 -3.613,27.633c-2.409,6.457 -6.023,10.913 -10.84,13.377c-4.817,2.464 -11.511,3.696 -20.074,3.696l0,1.76l101.173,0l0,-1.76c-8.569,0 -15.257,-1.232 -20.074,-3.696c-4.818,-2.464 -8.431,-6.92 -10.84,-13.377c-2.408,-6.452 -3.614,-15.664 -3.614,-27.633l0,-159.899c12.744,18.906 34.76,52.715 66.07,101.464l10.84,16.897c21.944,34.734 41.352,61.84 58.215,81.316c16.862,19.477 39.144,35.669 66.846,48.578c27.702,12.904 62.693,19.361 104.986,19.361c3.162,0 23.533,-0.912 30.423,-2.078c15.375,-2.602 30.174,-6.183 44.381,-10.771c33.052,-10.681 59.418,-26.17 79.091,-46.466c19.672,-20.296 29.508,-44.178 29.508,-71.635c0,-15.72 -3.952,-29.158 -11.843,-40.306" style="fill-rule:nonzero;"/><path d="M528.389,236.023c-3.791,0 -7.43,-0.863 -10.916,-2.592c-3.488,-1.728 -6.311,-4.203 -8.471,-7.428c-2.161,-3.223 -3.241,-6.995 -3.241,-11.316c0,-5.716 0.966,-10.402 2.9,-14.058c1.933,-3.655 4.225,-6.247 6.879,-7.777c0.91,7.712 3.278,15.055 7.107,22.034c3.827,6.979 9.077,13.295 15.748,18.944c-3.108,1.462 -6.444,2.193 -10.006,2.193m27.973,-10.219c2.729,-3.091 4.094,-6.497 4.094,-10.22c0,-3.789 -1.271,-7.211 -3.81,-10.269c-2.541,-3.057 -6.236,-5.449 -11.087,-7.179c1.439,-0.797 3.278,-1.296 5.515,-1.495c2.236,-0.2 5.704,-0.299 10.405,-0.299l0,-0.499l-30.702,0l0,0.499c6.519,0 11.579,1.779 15.18,5.334c3.6,3.556 5.402,8.558 5.402,15.005c0,3.125 -0.722,5.817 -2.161,8.076c-1.441,2.26 -3.26,4.055 -5.457,5.383c-3.867,-3.255 -7.278,-7.51 -10.235,-12.761c-2.956,-5.25 -5.25,-10.851 -6.879,-16.8c-1.631,-5.948 -2.445,-11.615 -2.445,-16.999c0,-6.646 1.325,-12.03 3.98,-16.152c2.652,-4.12 6.632,-6.181 11.94,-6.181c5.003,0 8.869,1.495 11.598,4.486c2.729,2.991 4.094,6.548 4.094,10.668c0,3.59 -0.986,6.747 -2.957,9.472l0.569,0l9.778,-13.26c-2.805,-4.253 -6.046,-7.378 -9.722,-9.372c-3.678,-1.994 -8.092,-2.991 -13.247,-2.991c-5.458,0 -10.083,1.18 -13.873,3.539c-3.791,2.36 -6.614,5.518 -8.471,9.472c-1.858,3.955 -2.786,8.292 -2.786,13.011c0,1.662 0.114,3.357 0.341,5.084c-2.956,0.733 -5.875,2.094 -8.755,4.088c-2.882,1.995 -5.27,4.537 -7.164,7.627c-1.896,3.091 -2.843,6.598 -2.843,10.519c0,4.653 1.422,8.758 4.264,12.313c2.843,3.557 6.633,6.299 11.371,8.226c4.737,1.927 9.836,2.891 15.294,2.891c4.396,0 8.603,-0.566 12.622,-1.695l6.368,-2.592c3.79,-1.528 7.05,-3.839 9.779,-6.929" style="fill-rule:nonzero;"/></svg>